<svg width="20" height="20" viewBox="0 0 20 20" fill="none" xmlns="http://www.w3.org/2000/svg">
<path d="M17.5 16.6667H19.1667V18.3333H0.833374V16.6667H2.50004V2.50001C2.50004 2.27899 2.58784 2.06703 2.74412 1.91075C2.9004 1.75447 3.11236 1.66667 3.33337 1.66667H16.6667C16.8877 1.66667 17.0997 1.75447 17.256 1.91075C17.4122 2.06703 17.5 2.27899 17.5 2.50001V16.6667ZM15.8334 16.6667V3.33334H4.16671V16.6667H15.8334ZM6.66671 9.16667H9.16671V10.8333H6.66671V9.16667ZM6.66671 5.83334H9.16671V7.50001H6.66671V5.83334ZM6.66671 12.5H9.16671V14.1667H6.66671V12.5ZM10.8334 12.5H13.3334V14.1667H10.8334V12.5ZM10.8334 9.16667H13.3334V10.8333H10.8334V9.16667ZM10.8334 5.83334H13.3334V7.50001H10.8334V5.83334Z" fill="#82B284"/>
</svg>
