<svg width="20" height="20" viewBox="0 0 20 20" fill="none" xmlns="http://www.w3.org/2000/svg">
<path fill-rule="evenodd" clip-rule="evenodd" d="M3.12463 3.62501L16.8746 3.625C17.2888 3.625 17.6246 3.96079 17.6246 4.375C17.6246 4.78921 17.2888 5.125 16.8746 5.125L3.12463 5.12501C2.71042 5.12501 2.37463 4.78922 2.37463 4.37501C2.37463 3.96079 2.71042 3.62501 3.12463 3.62501Z" fill="#D95151"/>
<path fill-rule="evenodd" clip-rule="evenodd" d="M8.125 7.375C8.53921 7.375 8.875 7.71079 8.875 8.125V13.125C8.875 13.5392 8.53921 13.875 8.125 13.875C7.71079 13.875 7.375 13.5392 7.375 13.125V8.125C7.375 7.71079 7.71079 7.375 8.125 7.375Z" fill="#D95151"/>
<path fill-rule="evenodd" clip-rule="evenodd" d="M11.875 7.375C12.2892 7.375 12.625 7.71079 12.625 8.125V13.125C12.625 13.5392 12.2892 13.875 11.875 13.875C11.4608 13.875 11.125 13.5392 11.125 13.125V8.125C11.125 7.71079 11.4608 7.375 11.875 7.375Z" fill="#D95151"/>
<path fill-rule="evenodd" clip-rule="evenodd" d="M4.37463 3.625C4.78885 3.625 5.12463 3.96079 5.12463 4.375V16.125H14.8746V4.375C14.8746 3.96079 15.2104 3.625 15.6246 3.625C16.0388 3.625 16.3746 3.96079 16.3746 4.375V16.25C16.3746 16.6147 16.2298 16.9644 15.9719 17.2223C15.714 17.4801 15.3643 17.625 14.9996 17.625H4.99963C4.63496 17.625 4.28523 17.4801 4.02736 17.2223C3.7695 16.9644 3.62463 16.6147 3.62463 16.25V4.375C3.62463 3.96079 3.96042 3.625 4.37463 3.625Z" fill="#D95151"/>
<path fill-rule="evenodd" clip-rule="evenodd" d="M6.71079 1.71079C7.08586 1.33571 7.59457 1.125 8.125 1.125H11.875C12.4054 1.125 12.9141 1.33571 13.2892 1.71079C13.6643 2.08586 13.875 2.59457 13.875 3.125V4.375C13.875 4.78921 13.5392 5.125 13.125 5.125C12.7108 5.125 12.375 4.78921 12.375 4.375V3.125C12.375 2.99239 12.3223 2.86521 12.2286 2.77145C12.1348 2.67768 12.0076 2.625 11.875 2.625H8.125C7.99239 2.625 7.86522 2.67768 7.77145 2.77145C7.67768 2.86521 7.625 2.99239 7.625 3.125V4.375C7.625 4.78921 7.28921 5.125 6.875 5.125C6.46079 5.125 6.125 4.78921 6.125 4.375V3.125C6.125 2.59457 6.33571 2.08586 6.71079 1.71079Z" fill="#D95151"/>
</svg>
